<?xml version="1.0" encoding="utf-8"?>
<svg width="54px" height="54px" viewBox="0 0 54 54" version="1.1" xmlns:xlink="http://www.w3.org/1999/xlink" xmlns="http://www.w3.org/2000/svg">
  <g id="Group-39" transform="translate(1 1)">
    <path d="M11.0244 14.7251L40.0264 14.7251Q40.1246 14.7251 40.2223 14.7347Q40.3201 14.7443 40.4164 14.7635Q40.5127 14.7827 40.6067 14.8112Q40.7006 14.8397 40.7914 14.8773Q40.8821 14.9148 40.9687 14.9611Q41.0553 15.0074 41.137 15.062Q41.2186 15.1166 41.2945 15.1788Q41.3705 15.2412 41.4399 15.3106Q41.5093 15.38 41.5716 15.4559Q41.6339 15.5319 41.6885 15.6135Q41.7431 15.6952 41.7893 15.7818Q41.8356 15.8684 41.8732 15.9591Q41.9108 16.0498 41.9393 16.1438Q41.9678 16.2378 41.987 16.3341Q42.0061 16.4304 42.0158 16.5282Q42.0254 16.6259 42.0254 16.7241L42.0254 35.7261Q42.0254 35.8243 42.0158 35.922Q42.0061 36.0198 41.987 36.1161Q41.9678 36.2124 41.9393 36.3064Q41.9108 36.4003 41.8732 36.4911Q41.8356 36.5818 41.7893 36.6684Q41.7431 36.755 41.6885 36.8367Q41.6339 36.9183 41.5716 36.9942Q41.5093 37.0701 41.4399 37.1396Q41.3705 37.209 41.2945 37.2713Q41.2186 37.3336 41.137 37.3882Q41.0553 37.4427 40.9687 37.489Q40.8821 37.5353 40.7914 37.5729Q40.7006 37.6105 40.6067 37.639Q40.5127 37.6675 40.4164 37.6867Q40.3201 37.7058 40.2223 37.7155Q40.1246 37.7251 40.0264 37.7251L11.0244 37.7251Q10.9262 37.7251 10.8285 37.7155Q10.7307 37.7058 10.6344 37.6867Q10.5381 37.6675 10.4441 37.639Q10.3501 37.6105 10.2594 37.5729Q10.1687 37.5353 10.0821 37.489Q9.99546 37.4427 9.91381 37.3882Q9.83215 37.3336 9.75624 37.2713Q9.68033 37.209 9.61088 37.1396Q9.54144 37.0701 9.47914 36.9942Q9.41684 36.9183 9.36228 36.8367Q9.30772 36.755 9.26143 36.6684Q9.21514 36.5818 9.17755 36.4911Q9.13997 36.4003 9.11147 36.3064Q9.08296 36.2124 9.0638 36.1161Q9.04464 36.0198 9.03502 35.922Q9.02539 35.8243 9.02539 35.7261L9.02539 16.7241Q9.02539 16.6259 9.03502 16.5282Q9.04464 16.4304 9.0638 16.3341Q9.08296 16.2378 9.11147 16.1438Q9.13997 16.0498 9.17755 15.9591Q9.21514 15.8684 9.26143 15.7818Q9.30772 15.6952 9.36228 15.6135Q9.41684 15.5319 9.47914 15.4559Q9.54144 15.38 9.61088 15.3106Q9.68033 15.2412 9.75624 15.1788Q9.83215 15.1165 9.91381 15.062Q9.99546 15.0074 10.0821 14.9611Q10.1687 14.9148 10.2594 14.8773Q10.3501 14.8397 10.4441 14.8112Q10.5381 14.7827 10.6344 14.7635Q10.7307 14.7443 10.8285 14.7347Q10.9262 14.7251 11.0244 14.7251Z" id="Rectangle-9" fill="#D3D3D3" fill-opacity="0" fill-rule="evenodd" stroke="#515151" stroke-width="2" />
    <path d="M0 25.6626C0 11.4895 11.4895 0 25.6626 0C39.8357 0 51.3252 11.4895 51.3252 25.6626C51.3252 39.8357 39.8357 51.3252 25.6626 51.3252C11.4895 51.3252 0 39.8357 0 25.6626Z" id="Ellipse-4" fill="#E3E3E3" fill-opacity="0" fill-rule="evenodd" stroke="#515151" stroke-width="2" />
    <path d="M9.02539 34.7251L23.3868 24.9103Q23.5106 24.8257 23.6403 24.7506Q23.7701 24.6755 23.9051 24.6103Q24.0401 24.5452 24.1797 24.4903Q24.3192 24.4355 24.4624 24.3912Q24.6056 24.3469 24.7518 24.3135Q24.8979 24.2801 25.0462 24.2577Q25.1944 24.2353 25.3439 24.2241Q25.4934 24.2129 25.6433 24.2129Q25.7932 24.2129 25.9427 24.2241Q26.0922 24.2353 26.2404 24.2577Q26.3887 24.2801 26.5348 24.3135Q26.681 24.347 26.8242 24.3912Q26.9674 24.4355 27.1069 24.4904Q27.2464 24.5453 27.3815 24.6104Q27.5165 24.6756 27.6462 24.7507Q27.776 24.8258 27.8997 24.9104L42.2595 34.725L27.8994 24.9103Q27.7756 24.8258 27.6459 24.7507Q27.5161 24.6756 27.3811 24.6104Q27.2461 24.5452 27.1066 24.4904Q26.9671 24.4355 26.8238 24.3912Q26.6806 24.347 26.5345 24.3135Q26.3883 24.2801 26.2401 24.2577Q26.0919 24.2353 25.9424 24.2241Q25.7929 24.2129 25.643 24.2129Q25.493 24.2129 25.3435 24.2241Q25.194 24.2353 25.0458 24.2577Q24.8976 24.2801 24.7514 24.3135Q24.6053 24.3469 24.4621 24.3912Q24.3188 24.4355 24.1793 24.4903Q24.0398 24.5452 23.9048 24.6104Q23.7698 24.6755 23.64 24.7506Q23.5103 24.8257 23.3865 24.9103L9.02539 34.7251Z" id="Rectangle-10" fill="#D3D3D3" fill-rule="evenodd" stroke="#515151" stroke-width="2" />
    <path d="M26.0935 22.801L29.2959 23.6898Q29.3515 23.7052 29.4058 23.7247Q29.4601 23.7443 29.5128 23.7678Q29.5655 23.7913 29.6164 23.8186Q29.6672 23.846 29.7158 23.877Q29.7645 23.9081 29.8107 23.9427Q29.8569 23.9772 29.9004 24.0152Q29.9439 24.0531 29.9845 24.0941Q30.0251 24.1352 30.0625 24.1791Q30.0999 24.2231 30.134 24.2697Q30.168 24.3163 30.1985 24.3653Q30.229 24.4143 30.2558 24.4654Q30.2826 24.5165 30.3055 24.5695Q30.3284 24.6225 30.3473 24.677Q30.3662 24.7316 30.381 24.7873Q30.3958 24.8431 30.4064 24.8999Q30.417 24.9566 30.4234 25.014Q30.4297 25.0713 30.4318 25.129Q30.4339 25.1867 30.4317 25.2444Q30.4295 25.302 30.4231 25.3594Q30.4166 25.4167 30.4059 25.4734Q30.3952 25.5302 30.3803 25.5859Q30.3654 25.6417 30.3464 25.6962Q30.3274 25.7507 30.3044 25.8036Q30.2814 25.8566 30.2545 25.9076Q30.2277 25.9587 30.1971 26.0077Q30.1665 26.0566 30.1324 26.1032Q30.0982 26.1497 30.0607 26.1936Q30.0232 26.2375 29.9826 26.2784Q29.9419 26.3194 29.8984 26.3572Q29.8548 26.3951 29.8085 26.4296Q29.7622 26.4641 29.7135 26.4951Q29.6648 26.526 29.6139 26.5533L26.5012 28.2215Q26.3932 28.2794 26.2789 28.3237Q26.1646 28.368 26.0457 28.3979Q25.9268 28.4279 25.8052 28.4431Q25.6835 28.4584 25.5609 28.4586Q25.4384 28.4589 25.3167 28.4441Q25.195 28.4294 25.076 28.3999Q24.957 28.3704 24.8425 28.3266Q24.728 28.2828 24.6197 28.2253L21.4748 26.5559Q21.4237 26.5288 21.3748 26.498Q21.3259 26.4671 21.2794 26.4327Q21.2329 26.3983 21.189 26.3605Q21.1452 26.3227 21.1044 26.2818Q21.0635 26.2409 21.0258 26.197Q20.9881 26.1531 20.9537 26.1066Q20.9194 26.06 20.8886 26.0111Q20.8578 25.9621 20.8308 25.9109Q20.8037 25.8598 20.7806 25.8068Q20.7574 25.7538 20.7383 25.6992Q20.7191 25.6446 20.7041 25.5887Q20.6891 25.5329 20.6782 25.4761Q20.6674 25.4192 20.6608 25.3618Q20.6543 25.3043 20.652 25.2465Q20.6497 25.1887 20.6518 25.1309Q20.6538 25.0731 20.6602 25.0156Q20.6665 24.9581 20.6771 24.9012Q20.6877 24.8443 20.7025 24.7884Q20.7173 24.7325 20.7363 24.6778Q20.7552 24.6232 20.7782 24.5701Q20.8011 24.517 20.828 24.4657Q20.8548 24.4145 20.8854 24.3654Q20.916 24.3163 20.9501 24.2696Q20.9843 24.2229 21.0218 24.1789Q21.0594 24.1349 21.1001 24.0938Q21.1408 24.0527 21.1845 24.0148Q21.2281 23.9768 21.2745 23.9422Q21.3209 23.9076 21.3697 23.8766Q21.4185 23.8455 21.4695 23.8182Q21.5205 23.7909 21.5734 23.7675Q21.6262 23.744 21.6807 23.7246Q21.7352 23.7051 21.791 23.6898L25.0291 22.7997Q25.2904 22.7278 25.5614 22.7282Q25.8324 22.7285 26.0935 22.801L26.0935 22.801Z" id="Rectangle-11" fill="#FFFFFF" fill-rule="evenodd" stroke="none" />
    <path d="M9.02515 18.1096L23.3866 27.9245Q23.5103 28.009 23.6401 28.0841Q23.7699 28.1592 23.9049 28.2244Q24.0399 28.2895 24.1794 28.3444Q24.3189 28.3993 24.4622 28.4435Q24.6054 28.4878 24.7515 28.5212Q24.8977 28.5546 25.0459 28.577Q25.1941 28.5994 25.3436 28.6106Q25.4931 28.6218 25.6431 28.6218Q25.793 28.6218 25.9425 28.6106Q26.092 28.5994 26.2402 28.577Q26.3884 28.5546 26.5346 28.5212Q26.6807 28.4877 26.8239 28.4435Q26.9672 28.3992 27.1067 28.3443Q27.2462 28.2895 27.3812 28.2243Q27.5162 28.1591 27.646 28.084Q27.7757 28.0089 27.8995 27.9244L42.2592 18.1097L27.8992 27.9244Q27.7754 28.009 27.6456 28.0841Q27.5159 28.1591 27.3809 28.2243Q27.2459 28.2895 27.1063 28.3443Q26.9668 28.3992 26.8236 28.4435Q26.6804 28.4878 26.5342 28.5212Q26.3881 28.5546 26.2398 28.577Q26.0916 28.5994 25.9421 28.6106Q25.7926 28.6218 25.6427 28.6218Q25.4928 28.6218 25.3433 28.6106Q25.1938 28.5994 25.0456 28.577Q24.8973 28.5546 24.7512 28.5212Q24.605 28.4878 24.4618 28.4435Q24.3186 28.3993 24.1791 28.3444Q24.0395 28.2895 23.9045 28.2244Q23.7695 28.1592 23.6398 28.0841Q23.51 28.009 23.3862 27.9244L9.02515 18.1096Z" id="Rectangle-10" fill="#D3D3D3" fill-rule="evenodd" stroke="#515151" stroke-width="2" />
  </g>
</svg>