<?xml version="1.0" encoding="utf-8"?>
<svg width="84px" height="84px" viewBox="0 0 84 84" version="1.1" xmlns:xlink="http://www.w3.org/1999/xlink" xmlns="http://www.w3.org/2000/svg">
  <defs>
    <linearGradient gradientUnits="userSpaceOnUse" x1="0" y1="0" x2="72" y2="49.54264" id="gradient_1">
      <stop offset="0%" stop-color="#BEBEBE" />
      <stop offset="100%" stop-color="#585858" stop-opacity="0.5294118" />
    </linearGradient>
    <path d="M42.499 5L42.501 5Q43.4215 5 44.341 5.04517Q45.2604 5.09034 46.1765 5.18057Q47.0927 5.2708 48.0032 5.40587Q48.9138 5.54094 49.8167 5.72053Q50.7195 5.90012 51.6125 6.1238Q52.5055 6.34747 53.3864 6.61469Q54.2673 6.88192 55.134 7.19204Q56.0008 7.50216 56.8512 7.85444Q57.7017 8.20672 58.5339 8.6003Q59.366 8.99389 60.1779 9.42783Q60.9898 9.86178 61.7793 10.335Q62.5689 10.8083 63.3343 11.3197Q64.0997 11.8311 64.8391 12.3795Q65.5785 12.9279 66.2901 13.5119Q67.0017 14.0959 67.6838 14.7141Q68.3659 15.3323 69.0168 15.9832Q69.6677 16.6341 70.2859 17.3162Q70.9041 17.9983 71.4881 18.7099Q72.0721 19.4215 72.6205 20.1609Q73.1688 20.9003 73.6803 21.6657Q74.1917 22.4311 74.665 23.2207Q75.1382 24.0102 75.5722 24.8221Q76.0061 25.6339 76.3997 26.4661Q76.7933 27.2983 77.1455 28.1488Q77.4978 28.9992 77.808 29.866Q78.1181 30.7327 78.3853 31.6136Q78.6525 32.4945 78.8762 33.3875Q79.0999 34.2804 79.2795 35.1833Q79.459 36.0862 79.5941 36.9968Q79.7292 37.9073 79.8194 38.8235Q79.9097 39.7396 79.9548 40.659Q80 41.5785 80 42.499L80 42.501Q80 43.4215 79.9548 44.341Q79.9097 45.2604 79.8194 46.1765Q79.7292 47.0927 79.5941 48.0032Q79.459 48.9138 79.2795 49.8167Q79.0999 50.7195 78.8762 51.6125Q78.6525 52.5055 78.3853 53.3864Q78.1181 54.2673 77.808 55.134Q77.4978 56.0008 77.1455 56.8512Q76.7933 57.7017 76.3997 58.5339Q76.0061 59.366 75.5722 60.1779Q75.1382 60.9898 74.665 61.7793Q74.1917 62.5689 73.6803 63.3343Q73.1688 64.0997 72.6205 64.8391Q72.0721 65.5785 71.4881 66.2901Q70.9041 67.0017 70.2859 67.6838Q69.6677 68.3659 69.0168 69.0168Q68.3659 69.6677 67.6838 70.2859Q67.0017 70.9041 66.2901 71.4881Q65.5785 72.0721 64.8391 72.6205Q64.0997 73.1688 63.3343 73.6803Q62.5689 74.1917 61.7793 74.665Q60.9898 75.1382 60.1779 75.5722Q59.3661 76.0061 58.5339 76.3997Q57.7017 76.7933 56.8512 77.1455Q56.0008 77.4978 55.134 77.808Q54.2673 78.1181 53.3864 78.3853Q52.5055 78.6525 51.6125 78.8762Q50.7195 79.0999 49.8167 79.2795Q48.9138 79.459 48.0032 79.5941Q47.0927 79.7292 46.1765 79.8194Q45.2604 79.9097 44.341 79.9548Q43.4215 80 42.501 80L42.499 80Q41.5785 80 40.659 79.9548Q39.7396 79.9097 38.8235 79.8194Q37.9073 79.7292 36.9968 79.5941Q36.0862 79.459 35.1833 79.2795Q34.2804 79.0999 33.3875 78.8762Q32.4945 78.6525 31.6136 78.3853Q30.7327 78.1181 29.866 77.808Q28.9992 77.4978 28.1488 77.1455Q27.2983 76.7933 26.4661 76.3997Q25.6339 76.0061 24.8221 75.5722Q24.0102 75.1382 23.2207 74.665Q22.4311 74.1917 21.6657 73.6803Q20.9003 73.1688 20.1609 72.6205Q19.4215 72.0721 18.7099 71.4881Q17.9983 70.9041 17.3162 70.2859Q16.6341 69.6677 15.9832 69.0168Q15.3323 68.3659 14.7141 67.6838Q14.0959 67.0017 13.5119 66.2901Q12.9279 65.5785 12.3795 64.8391Q11.8311 64.0997 11.3197 63.3343Q10.8083 62.5689 10.335 61.7793Q9.86178 60.9898 9.42783 60.1779Q8.99389 59.3661 8.6003 58.5339Q8.20672 57.7017 7.85444 56.8512Q7.50216 56.0008 7.19204 55.134Q6.88192 54.2673 6.61469 53.3864Q6.34747 52.5055 6.1238 51.6125Q5.90012 50.7195 5.72053 49.8167Q5.54094 48.9138 5.40587 48.0032Q5.2708 47.0927 5.18057 46.1765Q5.09034 45.2604 5.04517 44.341Q5 43.4215 5 42.501L5 42.499Q5 41.5785 5.04517 40.659Q5.09034 39.7396 5.18057 38.8235Q5.2708 37.9073 5.40587 36.9968Q5.54094 36.0862 5.72053 35.1833Q5.90012 34.2804 6.1238 33.3875Q6.34747 32.4945 6.61469 31.6136Q6.88192 30.7327 7.19204 29.866Q7.50216 28.9992 7.85444 28.1488Q8.20672 27.2983 8.6003 26.4661Q8.99389 25.6339 9.42783 24.8221Q9.86178 24.0102 10.335 23.2207Q10.8083 22.4311 11.3197 21.6657Q11.8311 20.9003 12.3795 20.1609Q12.9279 19.4215 13.5119 18.7099Q14.0959 17.9983 14.7141 17.3162Q15.3323 16.6341 15.9832 15.9832Q16.6341 15.3323 17.3162 14.7141Q17.9983 14.0959 18.7099 13.5119Q19.4215 12.9279 20.1609 12.3795Q20.9003 11.8311 21.6657 11.3197Q22.4311 10.8083 23.2207 10.335Q24.0102 9.86178 24.8221 9.42783Q25.6339 8.99389 26.4661 8.6003Q27.2983 8.20672 28.1488 7.85444Q28.9992 7.50216 29.866 7.19204Q30.7327 6.88192 31.6136 6.61469Q32.4945 6.34747 33.3875 6.1238Q34.2804 5.90012 35.1833 5.72053Q36.0862 5.54094 36.9968 5.40587Q37.9073 5.2708 38.8235 5.18057Q39.7396 5.09034 40.659 5.04517Q41.5785 5 42.499 5Z" id="path_1" />
    <clipPath id="clip_1">
      <use xlink:href="#path_1" />
    </clipPath>
  </defs>
  <path d="M0 0L84 0L84 84L0 84L0 0Z" id="Rectangle-3" fill="#181829" fill-rule="evenodd" stroke="none" />
  <path d="M9.3 44C9.3 44 13.4976 44.1466 16.3276 45C19.1575 45.8534 21 48.755 21 48.755L25.5 36.5L32.5 51.5L39 29L44 64L53.5 32.5L56.2477 48.755C56.2477 48.755 58 51.5 58 51.5L64.2958 38L68.5 45L75.9 44.5C75.9 44.5 78.5 44.625 78.5 47.5C78.5 50.375 75.9 56.5 75.9 56.5C75.9 56.5 68.901 67.4062 66 70.5C63.0989 73.5939 59.5 74.2409 59.5 74.2409C59.5 74.2409 49.2466 78.1651 44 78.5C38.2089 78.8696 32.353 76.785 25.3964 74.2409L16.3276 67.5L10.6414 59.4859C10.6414 59.4859 9.63533 60.3715 9.29999 56.5C8.96465 52.6285 6.49999 50.625 6.49999 47.5C6.49999 44.375 9.3 44 9.3 44Z" id="Rectangle-2" fill="url(#gradient_1)" fill-rule="evenodd" stroke="none" />
  <g id="Rectangle">
    <use stroke="none" fill="#D3D3D3" fill-opacity="0" xlink:href="#path_1" fill-rule="evenodd" />
    <g clip-path="url(#clip_1)">
      <use xlink:href="#path_1" fill="none" stroke="#FFFFFF" stroke-width="4" />
    </g>
  </g>
  <path d="M9.2735 44.5826L16.7203 44.5826L21.3302 49.2126L25.4138 34.631L32.7823 52.1062L38.7472 25.0991L44.0253 64.8154L52.8905 31.4687L57.5005 52.1062L63.8834 37.4636L68.848 44.5826L75.9402 44.5826" id="Line" fill="none" fill-rule="evenodd" stroke="#FFFFFF" stroke-width="2" stroke-linecap="round" stroke-linejoin="round" />
</svg>