<?xml version="1.0" encoding="utf-8"?>
<svg width="27px" height="27px" viewBox="0 0 27 27" version="1.1" xmlns:xlink="http://www.w3.org/1999/xlink" xmlns="http://www.w3.org/2000/svg">
  <defs>
    <path d="M13.499 0L13.501 0Q13.8324 0 14.1634 0.0162601Q14.4943 0.0325203 14.8241 0.0650014Q15.1539 0.0974825 15.4817 0.146106Q15.8095 0.19473 16.1345 0.259379Q16.4595 0.324029 16.781 0.404548Q17.1024 0.485067 17.4196 0.581262Q17.7367 0.677457 18.0487 0.789097Q18.3607 0.900736 18.6668 1.02755Q18.973 1.15436 19.2726 1.29605Q19.5721 1.43773 19.8644 1.59394Q20.1566 1.75016 20.4409 1.92052Q20.7251 2.09089 21.0006 2.27499Q21.2762 2.4591 21.5423 2.6565Q21.8085 2.85391 22.0647 3.06413Q22.3208 3.27436 22.5664 3.4969Q22.8119 3.71944 23.0462 3.95377Q23.2806 4.18809 23.5031 4.43363Q23.7256 4.67916 23.9359 4.93533Q24.1461 5.19149 24.3435 5.45765Q24.5409 5.72382 24.725 5.99936Q24.9091 6.27489 25.0795 6.55913Q25.2498 6.84336 25.4061 7.13562Q25.5623 7.42787 25.7039 7.72743Q25.8456 8.027 25.9724 8.33316Q26.0993 8.63931 26.2109 8.95132Q26.3225 9.26333 26.4187 9.58045Q26.5149 9.89756 26.5954 10.219Q26.676 10.5405 26.7406 10.8655Q26.8053 11.1905 26.8539 11.5183Q26.9025 11.8461 26.935 12.1759Q26.9675 12.5057 26.9837 12.8366Q27 13.1676 27 13.499L27 13.501Q27 13.8324 26.9837 14.1634Q26.9675 14.4943 26.935 14.8241Q26.9025 15.1539 26.8539 15.4817Q26.8053 15.8095 26.7406 16.1345Q26.676 16.4595 26.5954 16.781Q26.5149 17.1024 26.4187 17.4196Q26.3225 17.7367 26.2109 18.0487Q26.0993 18.3607 25.9724 18.6668Q25.8456 18.973 25.7039 19.2726Q25.5623 19.5721 25.4061 19.8644Q25.2498 20.1566 25.0795 20.4409Q24.9091 20.7251 24.725 21.0006Q24.5409 21.2762 24.3435 21.5423Q24.1461 21.8085 23.9359 22.0647Q23.7256 22.3208 23.5031 22.5664Q23.2806 22.8119 23.0462 23.0462Q22.8119 23.2806 22.5664 23.5031Q22.3208 23.7256 22.0647 23.9359Q21.8085 24.1461 21.5423 24.3435Q21.2762 24.5409 21.0006 24.725Q20.7251 24.9091 20.4409 25.0795Q20.1566 25.2498 19.8644 25.4061Q19.5721 25.5623 19.2726 25.7039Q18.973 25.8456 18.6668 25.9724Q18.3607 26.0993 18.0487 26.2109Q17.7367 26.3225 17.4195 26.4187Q17.1024 26.5149 16.781 26.5954Q16.4595 26.676 16.1345 26.7406Q15.8095 26.8053 15.4817 26.8539Q15.1539 26.9025 14.8241 26.935Q14.4943 26.9675 14.1634 26.9837Q13.8324 27 13.501 27L13.499 27Q13.1676 27 12.8366 26.9837Q12.5057 26.9675 12.1759 26.935Q11.8461 26.9025 11.5183 26.8539Q11.1905 26.8053 10.8655 26.7406Q10.5405 26.676 10.219 26.5954Q9.89756 26.5149 9.58045 26.4187Q9.26333 26.3225 8.95132 26.2109Q8.63931 26.0993 8.33316 25.9724Q8.027 25.8456 7.72743 25.7039Q7.42787 25.5623 7.13562 25.4061Q6.84336 25.2498 6.55913 25.0795Q6.27489 24.9091 5.99936 24.725Q5.72382 24.5409 5.45765 24.3435Q5.19149 24.1461 4.93533 23.9359Q4.67916 23.7256 4.43363 23.5031Q4.18809 23.2806 3.95377 23.0462Q3.71944 22.8119 3.4969 22.5664Q3.27436 22.3208 3.06413 22.0647Q2.85391 21.8085 2.6565 21.5423Q2.4591 21.2762 2.27499 21.0006Q2.09089 20.7251 1.92052 20.4409Q1.75016 20.1566 1.59394 19.8644Q1.43773 19.5721 1.29605 19.2726Q1.15436 18.973 1.02755 18.6668Q0.900736 18.3607 0.789097 18.0487Q0.677457 17.7367 0.581262 17.4195Q0.485067 17.1024 0.404548 16.781Q0.324029 16.4595 0.259379 16.1345Q0.19473 15.8095 0.146106 15.4817Q0.0974825 15.1539 0.0650014 14.8241Q0.0325203 14.4943 0.0162601 14.1634Q0 13.8324 0 13.501L0 13.499Q0 13.1676 0.0162601 12.8366Q0.0325203 12.5057 0.0650014 12.1759Q0.0974825 11.8461 0.146106 11.5183Q0.19473 11.1905 0.259379 10.8655Q0.324029 10.5405 0.404548 10.219Q0.485067 9.89756 0.581262 9.58045Q0.677457 9.26333 0.789097 8.95132Q0.900736 8.63931 1.02755 8.33316Q1.15436 8.027 1.29605 7.72743Q1.43773 7.42787 1.59394 7.13562Q1.75016 6.84336 1.92052 6.55913Q2.09089 6.27489 2.27499 5.99936Q2.4591 5.72382 2.6565 5.45765Q2.85391 5.19149 3.06413 4.93533Q3.27436 4.67916 3.4969 4.43363Q3.71944 4.18809 3.95377 3.95377Q4.18809 3.71944 4.43363 3.4969Q4.67916 3.27436 4.93533 3.06413Q5.19149 2.85391 5.45765 2.6565Q5.72382 2.4591 5.99936 2.27499Q6.27489 2.09089 6.55913 1.92052Q6.84336 1.75016 7.13562 1.59394Q7.42787 1.43773 7.72743 1.29605Q8.027 1.15436 8.33316 1.02755Q8.63931 0.900736 8.95132 0.789097Q9.26333 0.677457 9.58045 0.581262Q9.89756 0.485067 10.219 0.404548Q10.5405 0.324029 10.8655 0.259379Q11.1905 0.19473 11.5183 0.146106Q11.8461 0.0974825 12.1759 0.0650014Q12.5057 0.0325203 12.8366 0.0162601Q13.1676 0 13.499 0Z" id="path_1" />
    <clipPath id="clip_1">
      <use xlink:href="#path_1" />
    </clipPath>
  </defs>
  <g id="Rectangle">
    <use stroke="none" fill="#D3D3D3" fill-opacity="0" xlink:href="#path_1" fill-rule="evenodd" />
    <g clip-path="url(#clip_1)">
      <use xlink:href="#path_1" fill="none" stroke="#001563" stroke-width="4" />
    </g>
  </g>
  <path d="M1.53845 14.2497L4.21931 14.2497L5.87888 15.9165L7.34898 10.6672L10.0016 16.9582L12.149 7.23569L14.0491 21.5336L17.2406 9.52874L18.9002 16.9582L21.198 11.6869L22.9853 14.2497L25.5385 14.2497" id="Line" fill="none" fill-rule="evenodd" stroke="#001563" stroke-width="2" stroke-linecap="round" stroke-linejoin="round" />
</svg>