<?xml version="1.0" encoding="utf-8"?>
<svg width="54px" height="54px" viewBox="0 0 54 54" version="1.1" xmlns:xlink="http://www.w3.org/1999/xlink" xmlns="http://www.w3.org/2000/svg">
  <g id="Group-37" transform="translate(1 1)">
    <path d="M0 25.6626C0 11.4895 11.4895 0 25.6626 0C39.8357 0 51.3252 11.4895 51.3252 25.6626C51.3252 39.8357 39.8357 51.3252 25.6626 51.3252C11.4895 51.3252 0 39.8357 0 25.6626Z" id="Ellipse-4-Copy" fill="#FFFFFF" fill-opacity="0" fill-rule="evenodd" stroke="#515151" stroke-width="2" />
    <path d="M25.5738 10.7871L25.5771 10.7871Q25.9055 10.7871 26.2332 10.8082Q26.5609 10.8293 26.8866 10.8714Q27.2122 10.9136 27.5345 10.9765Q27.8568 11.0395 28.1744 11.123Q28.4919 11.2066 28.8035 11.3104Q29.115 11.4142 29.4193 11.5378Q29.7235 11.6614 30.0191 11.8042Q30.3148 11.9471 30.6007 12.1087Q30.8865 12.2703 31.1614 12.45Q31.4363 12.6296 31.6991 12.8265Q31.9618 13.0235 32.2114 13.2369Q32.461 13.4503 32.6963 13.6793Q32.9316 13.9083 33.1518 14.152Q33.3719 14.3957 33.5759 14.653Q33.7799 14.9103 33.967 15.1802Q34.1541 15.4501 34.3234 15.7314Q34.4927 16.0128 34.6436 16.3044Q34.7945 16.5961 34.9263 16.8968Q35.0582 17.1976 35.1704 17.5062Q35.2826 17.8148 35.3748 18.1299Q35.467 18.4451 35.5387 18.7656Q35.6104 19.086 35.6614 19.4104Q35.7124 19.7348 35.7424 20.0618Q35.7724 20.3888 35.7814 20.7171Q35.7903 21.0453 35.7781 21.3735Q35.766 21.7016 35.7327 22.0283Q35.6995 22.355 35.6453 22.6789Q35.5912 23.0028 35.5163 23.3225Q35.4414 23.6422 35.3462 23.9565Q35.2509 24.2707 35.1357 24.5782Q35.0204 24.8857 34.8856 25.1851Q34.7508 25.4846 34.5971 25.7747L25.5755 42.8001L25.5755 42.8001L16.5539 25.7747Q16.4001 25.4846 16.2653 25.1851Q16.1305 24.8857 16.0153 24.5782Q15.9 24.2707 15.8048 23.9565Q15.7095 23.6422 15.6346 23.3225Q15.5598 23.0028 15.5056 22.6789Q15.4514 22.355 15.4182 22.0283Q15.385 21.7016 15.3728 21.3735Q15.3606 21.0453 15.3696 20.7171Q15.3785 20.3888 15.4085 20.0618Q15.4386 19.7348 15.4895 19.4104Q15.5405 19.086 15.6122 18.7656Q15.684 18.4451 15.7761 18.1299Q15.8683 17.8148 15.9805 17.5062Q16.0928 17.1976 16.2246 16.8968Q16.3564 16.5961 16.5073 16.3044Q16.6582 16.0128 16.8276 15.7314Q16.9969 15.4501 17.1839 15.1802Q17.371 14.9103 17.575 14.653Q17.779 14.3957 17.9992 14.152Q18.2193 13.9083 18.4546 13.6793Q18.69 13.4503 18.9395 13.2369Q19.1891 13.0235 19.4519 12.8265Q19.7147 12.6296 19.9895 12.45Q20.2644 12.2703 20.5503 12.1087Q20.8362 11.9471 21.1318 11.8042Q21.4275 11.6614 21.7317 11.5378Q22.0359 11.4142 22.3475 11.3104Q22.659 11.2066 22.9766 11.123Q23.2941 11.0395 23.6164 10.9765Q23.9387 10.9136 24.2644 10.8714Q24.59 10.8293 24.9177 10.8082Q25.2454 10.7871 25.5738 10.7871Z" id="Rectangle-6" fill="#515151" fill-rule="evenodd" stroke="none" />
    <path d="M21.313 21.052C21.313 18.6498 23.2604 16.7024 25.6626 16.7024C28.0648 16.7024 30.0122 18.6498 30.0122 21.052C30.0122 23.4542 28.0648 25.4016 25.6626 25.4016C23.2604 25.4016 21.313 23.4542 21.313 21.052Z" id="Ellipse-5" fill="#FFFFFF" fill-rule="evenodd" stroke="none" />
  </g>
</svg>